<svg width="400" height="400" viewBox="0 0 400 400" fill="none" xmlns="http://www.w3.org/2000/svg">
<path d="M109.5 305C109.5 299.331 115.5 287.214 109.5 288.5C102.5 290 90 285.5 84 280C78 274.5 72.4058 250.234 74.5 226.5C79 175.5 102.5 154.5 102.5 154.5L80.5 143.5L88.5 134.5C65.16 123.302 66.7429 100.565 70 78.9999C70 78.9999 86.6619 104.259 101.5 99C141 85 135 9.5 230 34.5C279.5 61 265 106.5 265 129C277.252 135.882 290.173 153.984 289 155.5C292.168 154.305 294.607 154.3 297.888 154.754C300.864 155.165 303.544 156.8 305.316 159.225C316.483 174.503 325.191 192.832 327.5 215C329.5 234.2 326.5 280.5 317 284C307.5 287.5 301.5 285 301.5 285L293.276 290.757C292.216 291.499 291.751 292.837 292.123 294.077L294.328 301.427C295.418 305.059 295.5 308.977 293.808 312.371C282.434 335.174 243.814 362.445 203.175 371.632C202.071 371.881 200.924 371.878 199.82 371.629C149.603 360.286 109.5 328.241 109.5 305Z" fill="black"/>
<path d="M194.505 357.786C178.475 352.608 140.834 338.003 122.496 310.371C119.413 305.724 120.237 299.761 122.629 294.723C138.377 261.568 123.565 203.877 129 184.5C139.986 145.333 171.504 138.107 183.455 137.539C184.371 137.495 185.133 136.861 185.521 136.029C187.211 132.409 191.206 130.814 193.044 130.253C193.674 130.061 194.332 130 194.99 130H209.51C210.168 130 210.826 130.061 211.456 130.253C213.337 130.827 217.478 132.484 219.094 136.288C219.399 137.005 220.005 137.596 220.769 137.747C253.751 144.279 263.644 155.37 275 184.5C281.754 201.825 266.3 263.973 281.33 296.143C283.293 300.346 284.36 305.186 282.142 309.26C268.771 333.818 226.571 351.222 209.388 357.464C204.567 359.215 199.386 359.362 194.505 357.786Z" fill="#FEFFFD"/>
<path d="M196.003 358.774C184.627 355.97 158.704 347.332 132.5 323C141.5 309 140.5 285 139 238.5C160.699 255.593 174.893 262.21 201 264.5C193.1 258.914 190.442 254.867 191 248C197.647 248.925 201 248 202 248C203 248 202 227 202 227C197.024 222.632 195.005 221.512 192.5 215V137.5C191.98 133.895 191.187 132.736 189 132C190.581 130.717 191.669 130.269 194 130H209.51C210.168 130 210.826 130.061 211.456 130.253C213.337 130.827 217.478 132.484 219.094 136.288C219.399 137.005 220.005 137.596 220.769 137.747C253.751 144.279 263.644 155.37 275 184.5C281.754 201.825 266.3 263.973 281.33 296.143C283.293 300.346 284.36 305.186 282.142 309.26C268.328 334.631 223.745 352.367 207.766 358.047C203.962 359.399 199.922 359.741 196.003 358.774Z" fill="#87AFC8"/>
<path d="M147.5 201.5C145.824 178.565 150.201 166.625 165 148.5C139.057 167.166 131.016 184.785 135.5 211C139.601 203.86 141.857 202.248 147.5 201.5Z" fill="#87AFC8"/>
<path d="M178 145.5C182.061 143.458 183.758 143.577 186 145.5L187 224.5C153.104 205.618 151.369 188.173 178 145.5Z" fill="#87AFC8"/>
<path d="M215.5 143.5C211.859 136.463 207.924 135.732 201.5 136L202 232.5C170 234 153.5 195 142 210C140 212.609 142.244 216.787 141 219C140.438 220 137.885 220.733 132.5 219.5C152.5 256 245 259 270.5 221.5C275.349 168.067 250.583 145.703 215.5 143.5Z" fill="#111835"/>
<path d="M166.49 267.647C164.655 266.252 163.312 266.214 161.47 267.654C160.822 268.16 160.5 268.965 160.5 269.787V316.61C160.5 317.492 160.874 318.35 161.598 318.854C163.491 320.17 164.873 320.193 166.578 318.833C167.201 318.337 167.5 317.553 167.5 316.757V269.821C167.5 268.979 167.16 268.157 166.49 267.647Z" fill="#111835"/>
<path d="M178.883 270.663C177.541 269.812 176.398 269.754 174.771 270.667C173.938 271.135 173.5 272.065 173.5 273.02V322.153C173.5 323.01 173.847 323.854 174.551 324.341C175.988 325.333 177.165 325.384 178.828 324.343C179.602 323.859 180 322.969 180 322.056V272.896C180 272.011 179.63 271.137 178.883 270.663Z" fill="#111835"/>
<path d="M190.996 273.162C189.513 272.09 188.42 272.15 187.022 273.156C186.337 273.65 186 274.481 186 275.326V324.708C186 325.533 186.328 326.337 186.965 326.86C188.701 328.289 189.885 328.459 191.388 326.766C191.811 326.29 192 325.657 192 325.021V275.307C192 274.474 191.672 273.65 190.996 273.162Z" fill="#111835"/>
<path d="M153.153 262.67C151.527 261.242 150.278 261.223 148.47 262.651C147.824 263.161 147.5 263.966 147.5 264.79V310.584C147.5 311.481 147.883 312.357 148.634 312.847C150.234 313.891 151.425 313.907 152.957 312.84C153.656 312.353 154 311.513 154 310.661V264.686C154 263.924 153.725 263.173 153.153 262.67Z" fill="#111835"/>
<path d="M202 342V264.5C235.861 259.437 248.835 252.423 267 235.5C266.991 262.126 267.089 277.456 272.791 300.684C273.241 302.515 273.177 304.459 272.285 306.12C262.999 323.43 228.649 342 202 342Z" fill="#111835"/>
<path d="M231.602 321.155L231.5 273.5C231.498 272.632 231.137 271.491 230.421 271C228.7 269.819 227.409 269.859 225.663 270.989C224.897 271.486 224.498 272.666 224.5 273.578L224.602 321.046C224.604 321.873 224.935 322.679 225.582 323.195C227.55 324.765 228.921 324.815 230.759 323.177C231.328 322.669 231.604 321.918 231.602 321.155Z" fill="#87AFC8"/>
<path d="M244.681 316L244.578 268.345C244.576 267.477 244.215 266.627 243.499 266.136C241.778 264.955 240.487 264.994 238.741 266.125C237.975 266.621 237.576 267.51 237.578 268.423L237.68 315.89C237.682 316.718 237.853 318.484 238.5 319C240.467 320.57 241.838 320.62 243.677 318.981C244.246 318.474 244.682 316.763 244.681 316Z" fill="#87AFC8"/>
<path d="M257.844 312.478L257.741 264.823C257.739 263.955 257.378 263.105 256.662 262.614C254.941 261.433 253.65 261.473 251.904 262.603C251.138 263.1 250.739 263.989 250.741 264.902L250.843 312.369C250.845 313.196 251.176 314.484 251.823 315C253.791 316.57 255.162 316.62 257 314.981C257.569 314.474 257.845 313.241 257.844 312.478Z" fill="#87AFC8"/>
<path d="M219.44 323.453L219.337 275.798C219.335 274.93 218.974 274.08 218.258 273.589C216.537 272.408 215.246 272.448 213.5 273.578C212.734 274.075 212.335 274.964 212.337 275.876L212.439 323.344C212.441 324.171 212.773 324.978 213.419 325.494C215.387 327.063 216.758 327.113 218.596 325.475C219.165 324.968 219.441 324.216 219.44 323.453Z" fill="#87AFC8"/>
<g filter="url(#filter0_f_1_5)">
<path d="M235 238C241.185 235.251 241.703 230.376 241.421 227.596C241.305 226.444 240.096 225.889 239.032 226.346C233.591 228.683 229.363 230.532 225.037 234.163C223.998 235.034 224.237 236.629 225.5 237.121C228.085 238.129 232.138 239.272 235 238Z" fill="#FFDE00"/>
<path d="M178.706 235.238C174.579 230.408 169.912 227.407 164.557 225.704C163.29 225.301 162.093 226.319 162.319 227.629C162.886 230.911 164.424 236.302 168.5 238C171.058 239.066 175.022 238.628 177.687 238.135C179.06 237.881 179.613 236.3 178.706 235.238Z" fill="#FFDE00"/>
</g>
<path d="M102.5 142.5L111.5 134.5C111.5 134.5 91.2194 127.021 84.5 120C78.7561 113.998 79.5 104.5 79.5 104.5C79.5 104.5 94.4101 116.225 103.5 113C134.5 102 145 62.3769 172.5 55C183.309 52.1004 193 54.5 193 54.5C193 54.5 175.836 61.3085 168 68C160.902 74.0611 155 85.5 155 85.5C164.546 75.8223 177.022 63.6367 194 64.5C223.5 66 236.5 94.5 235 111.5C235 111.5 187.5 103 153.5 117C136.671 123.93 131 132.5 131 132.5L132.5 134C132.5 134 126 147.5 114.5 148C108.654 148.254 102.5 142.5 102.5 142.5Z" fill="#0142DC"/>
<path d="M119.82 166.073C116.014 161.988 110.239 159.937 108.211 160.139C107.66 160.194 107.311 160.693 106.943 161.106C103.96 164.449 89.7999 181.554 84 211C82.5206 218.511 81.6537 225.873 81 233.5C79.5 251 84.5 271 90.5 275.5C93.3748 277.656 101.361 282.64 103 281C115.164 268.833 116.757 254.335 118 239C119.228 223.86 111.748 208.385 108.991 203.263C108.374 202.117 108.162 200.785 108.468 199.519C111.567 186.717 114.669 179.834 120.15 169.15C120.669 168.14 120.594 166.904 119.82 166.073Z" fill="#0142DC"/>
<path d="M300.708 281.708C301.244 281.93 301.81 282.111 302.375 282.259C303.939 282.667 305.798 282.897 307.637 282.926C309.469 282.955 311.439 282.786 313.195 282.301C314.847 281.843 316.864 280.951 318.034 279.106C318.696 278.062 319.229 276.59 319.682 275.051C320.157 273.437 320.62 271.47 321.064 269.26C321.952 264.834 322.79 259.279 323.476 253.301C324.846 241.373 325.644 227.51 324.994 217.309C323.309 190.895 307.216 167.036 302.97 161.145L300.546 162.892L302.97 161.145C301.946 159.725 300.438 158.55 298.532 158.08C294.705 157.137 291.433 157.588 288.825 159.048C286.272 160.477 284.647 162.708 283.738 164.843C282.945 166.705 283.208 168.599 283.749 170.027L294.911 199.495C294.885 199.52 294.858 199.545 294.831 199.57C293.648 200.68 292.159 202.392 290.681 204.927C287.722 210.004 284.877 218.266 284.501 231.414C284.08 246.144 287.094 258.106 288.225 262.038C288.235 262.072 288.236 262.096 288.236 262.11C280.388 274.79 267.196 282.268 249.529 287.218C247.546 287.774 245.473 288.098 243.348 288.245L233.291 288.938C232.309 289.006 231.127 289.256 230.022 289.956C228.079 291.188 226.696 292.868 226.112 294.948C225.54 296.983 225.833 299.041 226.542 300.897C228.16 305.137 232.632 306.427 235.975 306.188L251.584 305.073C252.558 305.003 253.524 304.825 254.466 304.534C268.621 300.164 285.119 294.208 300.708 281.708Z" fill="#0142DC" stroke="black" stroke-width="6"/>
<g filter="url(#filter1_f_1_5)">
<path d="M243.097 295.556L236.309 295.981C236.104 295.993 235.899 296.034 235.716 296.125C234.07 296.941 234.078 298.699 235.537 299.725C235.825 299.928 236.185 299.988 236.538 299.966L243.248 299.547C243.733 299.517 244.197 299.316 244.524 298.956C245.547 297.83 245.576 297.253 244.622 296.159C244.244 295.725 243.671 295.521 243.097 295.556Z" fill="#FE0009"/>
</g>
<path d="M322 225C321.667 223 318.5 219 315.5 218.5C305.131 216.772 304 272 317 274C323.5 269.5 322.333 227 322 225Z" fill="#0F143A"/>
<path d="M92 275C97.7895 273.842 101.745 215.439 85.5 219.5C79.5 221 80.4884 236.744 81 248C81.5 259 87 276 92 275Z" fill="#0F143A"/>
<defs>
<filter id="filter0_f_1_5" x="161.291" y="224.615" width="81.1886" height="15.0422" filterUnits="userSpaceOnUse" color-interpolation-filters="sRGB">
<feFlood flood-opacity="0" result="BackgroundImageFix"/>
<feBlend mode="normal" in="SourceGraphic" in2="BackgroundImageFix" result="shape"/>
<feGaussianBlur stdDeviation="0.5" result="effect1_foregroundBlur_1_5"/>
</filter>
<filter id="filter1_f_1_5" x="233.961" y="295.052" width="11.8541" height="5.41824" filterUnits="userSpaceOnUse" color-interpolation-filters="sRGB">
<feFlood flood-opacity="0" result="BackgroundImageFix"/>
<feBlend mode="normal" in="SourceGraphic" in2="BackgroundImageFix" result="shape"/>
<feGaussianBlur stdDeviation="0.25" result="effect1_foregroundBlur_1_5"/>
</filter>
</defs>
</svg>
